<?xml version="1.0" standalone="no"?>
<!DOCTYPE svg PUBLIC "-//W3C//DTD SVG 20010904//EN"
 "http://www.w3.org/TR/2001/REC-SVG-20010904/DTD/svg10.dtd">
<svg version="1.0" xmlns="http://www.w3.org/2000/svg"
 width="762.000000pt" height="867.000000pt" viewBox="0 0 762.000000 867.000000"
 preserveAspectRatio="xMidYMid meet">

<g transform="translate(0.000000,867.000000) scale(0.100000,-0.100000)"
fill="#000000" stroke="none">
<path d="M3618 8101 c-20 -4 -45 -14 -55 -21 -51 -39 -73 -66 -73 -89 0 -26
-58 -121 -74 -121 -5 0 -3 7 4 15 7 8 9 15 6 15 -4 0 2 13 13 29 28 39 28 71
1 64 -11 -3 -17 -10 -13 -16 4 -6 0 -8 -10 -4 -11 4 -17 1 -17 -8 0 -8 7 -15
15 -15 8 0 15 -5 15 -11 0 -7 -14 -8 -39 -4 -32 5 -43 3 -60 -14 -12 -12 -32
-21 -46 -21 -14 0 -25 -3 -25 -7 0 -25 -112 -45 -125 -23 -3 6 -17 10 -31 10
-14 0 -24 6 -24 15 0 10 -9 14 -30 11 -36 -4 -56 -20 -77 -60 -21 -42 -28 -45
-91 -39 -73 6 -84 1 -72 -32 7 -17 7 -32 0 -43 -8 -15 -9 -15 -10 2 0 15 -5
17 -27 11 -35 -8 -35 -8 -27 -29 5 -14 9 -15 15 -4 7 10 9 9 9 -5 0 -10 4 -15
10 -12 5 3 7 0 4 -9 -5 -12 -11 -13 -30 -4 -13 6 -21 15 -18 19 3 5 -1 9 -10
9 -8 0 -16 -4 -18 -9 -1 -5 -21 -1 -43 9 -22 10 -44 16 -48 13 -5 -3 -19 0
-32 7 -19 10 -33 10 -70 -1 -52 -16 -91 -58 -102 -111 -11 -59 -31 -94 -67
-122 -20 -15 -36 -34 -36 -42 0 -8 -6 -17 -13 -20 -8 -3 -20 -20 -27 -39 -14
-36 -30 -47 -30 -21 0 8 6 16 13 19 6 2 8 8 4 13 -5 5 -13 1 -18 -9 -10 -16
-31 -25 -27 -9 2 4 -4 17 -13 30 -14 19 -18 20 -28 8 -8 -10 -26 -14 -49 -12
-20 2 -40 -1 -44 -7 -5 -8 -14 -7 -32 1 -22 10 -26 9 -26 -3 0 -8 9 -24 21
-36 22 -22 23 -21 -37 -84 -22 -24 -34 -46 -34 -65 0 -38 -9 -60 -26 -60 -8 0
-14 -7 -14 -15 0 -8 -6 -12 -13 -9 -7 2 -23 -7 -36 -20 -17 -18 -22 -32 -17
-50 6 -26 -9 -37 -17 -13 -2 6 -3 5 -2 -3 2 -8 6 -23 10 -33 6 -13 1 -18 -24
-23 -44 -9 -84 -58 -76 -95 5 -20 2 -28 -10 -31 -12 -2 -9 -11 16 -41 34 -42
34 -61 -2 -62 -23 0 -24 -3 -25 -65 0 -36 -6 -81 -12 -100 -6 -19 -10 -65 -8
-102 2 -40 -1 -69 -7 -71 -7 -2 -7 -32 2 -93 20 -153 23 -169 31 -185 5 -8 7
-27 6 -42 -2 -15 0 -30 4 -32 5 -3 6 -17 4 -33 -3 -15 4 -44 16 -66 14 -29 18
-50 14 -78 -4 -23 -3 -38 4 -38 6 0 7 -13 2 -34 -5 -22 -2 -57 6 -93 8 -32 14
-72 14 -88 0 -17 5 -36 12 -43 8 -8 8 -15 0 -24 -13 -17 -8 -168 8 -228 7 -25
14 -58 16 -73 2 -15 13 -60 25 -98 14 -47 19 -83 15 -109 -5 -33 -3 -40 22
-56 35 -24 101 -54 117 -54 8 0 16 8 18 18 4 16 5 16 6 0 0 -10 9 -18 19 -18
24 0 74 -47 90 -83 7 -15 12 -52 12 -81 0 -30 7 -67 15 -82 8 -16 15 -36 15
-45 0 -8 6 -23 13 -33 11 -15 12 -2 9 79 -4 94 11 210 29 221 5 3 9 19 9 35 0
16 6 32 13 34 7 3 12 22 11 47 0 23 5 53 12 67 7 13 11 29 8 33 -3 5 3 17 14
26 21 19 25 31 23 75 -1 17 -7 27 -17 27 -10 0 -4 9 16 27 33 27 70 38 70 20
0 -5 7 -4 15 3 18 15 20 11 35 -80 32 -183 72 -280 149 -353 102 -97 318 -187
452 -187 164 0 357 95 456 226 l31 42 -25 7 c-20 5 -29 1 -41 -17 -44 -63
-100 -111 -173 -147 -42 -22 -75 -41 -73 -44 3 -2 -8 -2 -23 0 -17 3 -23 1
-16 -4 6 -4 -39 -8 -100 -7 -91 1 -127 6 -193 28 -210 68 -358 241 -371 436
-6 86 3 170 18 170 6 0 7 -4 4 -10 -3 -5 -2 -10 4 -10 5 0 13 9 16 20 3 11 11
20 17 20 5 0 8 6 5 13 -2 7 13 19 37 29 l41 17 -35 0 c-33 1 -33 2 -14 15 11
8 27 14 35 13 8 -1 14 3 15 8 0 6 13 13 30 16 16 3 28 10 26 17 -1 7 11 12 33
12 27 0 33 3 29 15 -5 13 2 14 50 9 36 -4 60 -3 70 5 16 13 69 9 176 -15 100
-23 164 -24 168 -4 2 11 -13 21 -45 33 -26 10 -61 26 -78 37 l-30 20 35 0 c64
0 167 -28 243 -65 156 -76 202 -145 202 -305 0 -67 -6 -111 -19 -148 -10 -29
-16 -56 -13 -59 3 -3 16 28 28 69 33 107 32 217 -4 290 -53 109 -182 192 -354
228 -60 13 -76 19 -52 19 56 1 179 -34 258 -73 81 -41 101 -46 51 -13 -58 39
-142 76 -200 88 -30 6 -60 15 -67 21 -6 5 -47 10 -92 11 -44 1 -75 5 -68 9 19
12 -2 9 -25 -3 -15 -8 -19 -8 -14 0 4 6 1 12 -6 13 -7 0 -17 2 -23 3 -5 2 -22
3 -36 4 -15 0 -29 7 -32 15 -4 10 3 13 29 12 19 -1 34 2 34 6 0 7 -42 13 -80
10 -120 -7 -240 -35 -277 -64 -7 -5 -21 -7 -33 -3 -11 3 -20 3 -20 -2 0 -5 -9
-9 -20 -9 -11 0 -20 4 -20 9 0 4 -4 5 -10 2 -5 -3 -10 -14 -10 -23 0 -10 -8
-28 -17 -42 -9 -13 -18 -32 -18 -42 -2 -28 -43 -66 -92 -84 -42 -16 -43 -18
-43 -60 0 -39 -6 -49 -67 -115 -38 -40 -94 -98 -125 -129 -32 -32 -68 -80 -82
-111 -18 -37 -26 -47 -26 -31 0 46 64 150 166 270 46 54 61 78 57 95 -3 16 -2
18 5 8 12 -17 24 1 16 23 -5 12 -2 15 12 10 14 -4 15 -3 6 4 -10 6 -14 32 -13
85 1 62 -2 78 -17 86 -9 5 -13 13 -8 18 5 4 11 2 13 -4 3 -7 9 -13 14 -13 6 0
8 4 4 9 -3 6 1 16 8 23 11 10 12 20 1 53 -6 23 -10 55 -8 73 2 20 -1 32 -8 32
-6 0 -9 3 -6 6 4 3 16 0 29 -6 20 -11 21 -10 16 9 -4 17 -2 20 7 12 8 -7 23
-7 42 -2 16 5 22 10 13 10 -9 1 -20 8 -23 17 -3 8 -2 13 3 10 5 -4 7 3 4 13
-5 21 -28 18 -37 -5 -3 -8 -10 -14 -16 -14 -6 0 -8 5 -5 10 3 6 1 10 -4 10 -6
0 -11 5 -11 11 0 6 7 8 16 5 8 -3 12 -2 9 3 -6 11 7 21 36 26 12 2 27 9 34 15
17 14 8 41 -11 33 -10 -4 -12 0 -8 11 8 22 30 20 46 -3 14 -20 14 -20 26 0 7
10 18 19 25 18 9 0 9 -2 0 -6 -10 -3 -10 -9 0 -26 17 -29 15 -63 -3 -59 -8 2
-12 0 -8 -4 4 -4 3 -13 -4 -21 -8 -11 -7 -12 6 -7 10 4 18 0 22 -10 3 -9 11
-13 17 -9 6 4 3 11 -9 20 -17 13 -18 15 -3 26 14 11 15 17 5 42 -10 25 -9 32
6 47 20 20 24 39 7 36 -6 -2 -13 2 -16 8 -2 7 5 10 22 7 14 -3 25 -12 25 -19
0 -18 7 -17 55 10 22 12 39 28 37 34 -1 7 3 12 9 12 6 0 17 6 25 14 11 11 11
16 1 19 -9 4 -9 6 1 6 6 1 12 10 12 21 0 11 5 20 12 20 6 0 9 2 6 5 -9 9 -38
-6 -38 -20 0 -25 -25 -36 -46 -20 -16 12 -17 14 -2 15 9 0 18 -5 20 -12 3 -9
6 -9 12 0 4 7 2 12 -3 12 -6 0 -11 5 -11 10 0 6 7 10 15 10 8 0 15 4 15 8 0 5
18 15 39 22 24 8 41 20 45 33 3 13 10 18 20 14 19 -7 31 9 14 17 -7 4 -3 4 10
2 19 -4 21 -2 11 10 -7 8 -8 14 -3 12 5 -1 19 6 32 17 12 11 35 22 50 25 15 3
28 11 28 18 1 6 2 14 3 17 0 3 11 0 24 -6 12 -6 19 -8 15 -4 -4 4 0 14 8 23
13 12 13 16 2 23 -10 7 -10 9 2 9 9 0 22 -6 29 -12 7 -7 12 -8 11 -3 -6 31 1
45 25 45 14 0 25 -5 25 -11 0 -5 5 -7 10 -4 6 4 8 15 5 24 -3 11 0 18 9 18 9
0 13 -4 10 -9 -3 -4 2 -8 10 -8 10 0 13 6 10 15 -4 9 -1 15 7 15 30 0 89 22
84 31 -7 10 -6 11 50 13 46 2 87 14 96 28 3 5 20 10 38 10 17 1 36 7 42 15 6
7 17 13 24 13 8 0 22 11 32 24 18 22 20 23 31 8 10 -13 14 -14 18 -4 5 10 9
10 20 1 12 -10 18 -9 32 6 14 14 14 17 2 13 -18 -7 -45 18 -30 27 6 3 10 4 10
1 0 -3 16 2 36 10 30 13 38 13 45 2 5 -8 9 -9 9 -2 0 7 9 14 19 17 14 3 18 1
14 -9 -3 -8 0 -14 6 -14 6 0 11 5 11 10 0 6 12 10 28 9 15 -1 44 6 64 15 51
22 70 20 92 -11 11 -14 14 -23 8 -19 -7 4 -12 2 -12 -3 0 -6 9 -11 19 -11 11
0 22 -4 26 -10 3 -5 12 -7 20 -3 9 3 21 0 29 -6 7 -6 21 -9 30 -5 9 3 16 1 16
-6 0 -6 4 -8 10 -5 5 3 22 -6 36 -22 14 -15 23 -22 19 -15 -9 17 11 15 30 -4
8 -9 22 -13 31 -10 9 4 18 -2 24 -17 5 -13 9 -16 10 -7 0 12 2 12 10 -2 6 -10
18 -14 30 -11 12 3 20 0 20 -8 0 -7 3 -10 6 -6 3 3 19 -7 34 -23 19 -19 36
-28 54 -26 14 2 23 -1 20 -5 -3 -5 2 -9 10 -9 28 0 84 -33 90 -52 2 -11 9 -17
15 -13 6 3 11 2 11 -4 0 -5 11 -8 25 -7 13 2 22 0 20 -4 -2 -4 5 -16 15 -28
11 -12 20 -25 20 -30 0 -16 43 -39 68 -37 16 1 21 -3 18 -12 -4 -11 0 -13 14
-8 11 4 20 2 20 -4 0 -6 6 -11 14 -11 7 0 19 -15 27 -32 7 -18 21 -40 31 -49
10 -9 18 -20 18 -24 0 -5 7 -17 17 -27 15 -17 15 -18 -5 -18 -12 0 -22 -6 -22
-14 0 -8 -3 -22 -6 -30 -5 -12 -2 -15 10 -10 9 3 28 -1 42 -11 20 -13 24 -22
19 -42 -4 -16 -2 -22 5 -18 5 3 10 0 10 -9 0 -8 6 -17 13 -19 7 -3 5 -6 -5 -6
-22 -1 -24 -21 -3 -21 9 0 12 -6 8 -16 -3 -9 -12 -13 -21 -9 -13 5 -12 2 2
-14 15 -17 16 -23 6 -36 -10 -12 -10 -18 0 -30 6 -8 9 -18 6 -24 -9 -14 5 -42
17 -34 6 4 8 0 4 -9 -3 -9 0 -21 6 -28 18 -19 -12 -2 -40 22 -19 17 -22 18
-30 4 -7 -14 -16 -12 -66 13 -32 16 -67 27 -77 24 -21 -6 -17 -23 5 -23 8 0
17 -4 20 -10 4 -6 -6 -7 -27 -4 -32 6 -32 6 -13 -11 17 -14 17 -16 3 -11 -10
3 -18 3 -18 -1 0 -3 8 -12 18 -20 15 -13 14 -14 -17 -9 -29 5 -32 4 -21 -9 11
-13 7 -15 -26 -15 -29 0 -35 3 -24 10 8 5 10 10 5 10 -6 0 -16 -5 -22 -11 -11
-11 -66 -2 -58 11 2 4 17 5 31 2 19 -3 25 -1 20 7 -10 16 -56 14 -62 -4 -5
-12 -19 -14 -65 -11 -52 3 -60 1 -73 -19 -9 -14 -29 -25 -55 -29 -23 -3 -41
-11 -41 -17 0 -6 -6 -9 -14 -6 -8 3 -16 3 -18 -1 -5 -12 -69 -55 -74 -50 -2 3
13 17 33 31 24 17 32 27 21 27 -19 0 -68 -42 -68 -58 0 -6 -8 -16 -19 -21 -10
-6 -49 -36 -87 -66 -58 -48 -72 -55 -97 -49 -39 8 -207 8 -246 -1 -24 -5 -31
-3 -31 9 0 9 -4 16 -10 16 -14 0 -12 -31 5 -79 13 -38 13 -51 -5 -139 -25
-117 -48 -192 -66 -212 -12 -12 -14 -12 -14 0 -1 11 -4 10 -15 -4 -19 -26 -19
-36 1 -36 19 0 56 44 66 79 4 15 19 75 34 134 32 133 43 143 151 140 99 -2
116 -14 138 -100 14 -57 67 -225 81 -258 47 -113 193 -235 335 -280 161 -51
333 -26 503 73 138 81 237 217 261 362 4 22 11 40 15 40 18 0 49 -52 55 -93 4
-23 20 -100 36 -170 32 -140 34 -186 18 -304 -14 -106 -33 -178 -80 -308 -51
-140 -51 -139 -84 -142 -34 -2 -36 -5 -25 -23 7 -11 11 -12 24 0 14 11 16 10
10 -3 -3 -8 -12 -18 -20 -21 -8 -3 -14 -15 -14 -27 0 -17 -3 -19 -14 -10 -10
8 -16 9 -21 1 -3 -5 -1 -10 5 -10 6 0 8 -5 5 -10 -4 -6 -11 -7 -17 -4 -6 4 -9
-4 -8 -17 3 -38 1 -42 -15 -29 -16 13 -39 4 -29 -12 5 -7 1 -9 -9 -5 -10 3
-17 2 -17 -2 0 -5 5 -11 12 -13 18 -6 1 -56 -22 -63 -16 -5 -19 -12 -14 -28 5
-18 4 -20 -7 -9 -17 16 -39 16 -39 -1 0 -7 -9 -18 -20 -25 -11 -7 -17 -18 -14
-27 7 -18 -7 -20 -25 -2 -11 10 -12 8 -6 -10 5 -17 2 -23 -9 -23 -9 0 -16 -4
-16 -10 0 -5 4 -10 9 -10 12 0 11 -59 -1 -66 -14 -9 -9 -24 6 -18 9 3 17 -3
21 -16 5 -17 0 -29 -19 -48 -26 -26 -26 -26 -26 -4 0 12 5 22 10 22 6 0 10 4
10 9 0 15 -31 42 -41 36 -5 -4 -9 4 -9 16 0 22 -1 22 -14 4 -13 -18 -14 -18
-20 3 -4 12 -4 26 -1 32 3 5 2 10 -4 10 -6 0 -8 6 -5 14 3 8 1 23 -5 33 -9 16
-10 15 -11 -9 0 -15 -5 -30 -10 -33 -8 -5 -7 -11 0 -20 7 -8 8 -20 4 -26 -4
-7 -3 -9 3 -6 6 4 14 0 17 -9 4 -12 2 -15 -9 -10 -8 3 -15 1 -15 -4 0 -5 -19
-28 -42 -51 -26 -26 -38 -44 -31 -46 7 -3 20 3 29 11 22 22 31 20 11 -2 -10
-10 -17 -22 -17 -27 0 -5 -8 -17 -17 -28 -17 -19 -17 -20 4 -8 17 8 24 8 29
-1 4 -6 2 -14 -4 -16 -7 -2 -10 -7 -7 -12 8 -13 -24 -40 -40 -34 -9 4 -15 0
-15 -10 0 -9 4 -16 9 -16 5 0 7 -10 3 -22 -3 -14 -1 -19 6 -14 8 4 10 2 6 -8
-3 -9 -12 -12 -22 -9 -12 5 -14 2 -9 -11 4 -10 3 -15 -3 -11 -6 3 -19 0 -31
-9 l-21 -14 23 -4 22 -3 -26 -30 c-22 -25 -28 -28 -37 -15 -7 11 -10 6 -10
-22 0 -21 4 -38 10 -38 19 0 3 -81 -19 -97 -12 -8 -20 -20 -19 -26 4 -19 -42
-61 -54 -49 -7 7 -20 4 -41 -8 -17 -11 -34 -17 -38 -14 -5 2 -16 -7 -25 -21
-9 -13 -20 -22 -26 -19 -5 3 -12 -4 -15 -15 -4 -17 -8 -19 -20 -10 -11 10 -13
9 -11 -2 2 -8 -4 -14 -13 -14 -9 0 -23 -5 -30 -11 -33 -26 -40 -26 -35 -2 3
12 0 37 -8 53 l-13 30 -13 -27 c-14 -30 -36 -43 -46 -27 -4 6 -16 2 -30 -12
-26 -24 -30 -20 -14 12 9 16 7 19 -8 19 -15 0 -18 5 -14 27 l5 28 -35 -32
c-19 -18 -39 -33 -44 -33 -6 0 -19 -9 -29 -20 -26 -29 -73 -51 -78 -36 -2 6
-20 11 -41 11 -30 0 -36 -3 -32 -17 2 -11 -1 -18 -9 -18 -7 0 -16 12 -21 28
-5 20 -8 23 -11 9 -7 -26 -21 -20 -25 11 l-4 27 -14 -27 c-10 -21 -16 -25 -26
-17 -7 6 -10 17 -7 26 5 12 1 11 -16 -3 -37 -32 -88 -26 -82 9 1 5 -3 6 -8 3
-5 -4 -11 2 -14 11 -3 15 -6 13 -17 -9 -10 -21 -21 -28 -42 -28 -20 0 -28 -5
-29 -17 0 -10 -6 -3 -13 15 -6 19 -19 38 -29 43 -13 8 -15 6 -11 -6 4 -10 0
-15 -13 -15 -10 0 -24 -5 -31 -12 -9 -9 -12 -9 -12 1 0 9 -11 12 -34 9 -19 -2
-32 0 -29 5 3 5 -5 7 -18 5 -15 -2 -23 -9 -21 -18 2 -10 -6 -6 -22 9 -20 18
-23 28 -16 46 12 30 3 37 -25 19 -25 -16 -37 -8 -50 36 -10 32 -26 42 -43 27
-11 -9 -18 -6 -34 12 -15 19 -17 33 -12 66 4 29 2 45 -6 50 -9 5 -10 1 -5 -14
3 -11 2 -28 -3 -38 -9 -15 -11 -15 -22 4 -16 24 -44 20 -65 -10 -20 -28 -28
-16 -14 19 14 34 18 74 7 68 -4 -3 -8 2 -8 12 0 11 -6 15 -20 11 -27 -7 -41
40 -17 58 19 14 27 48 12 55 -5 3 -12 -6 -13 -20 -2 -13 -15 -38 -29 -54 -13
-16 -22 -35 -19 -43 3 -8 1 -11 -4 -8 -5 3 -12 21 -16 40 -3 19 -10 35 -16 35
-5 0 -7 4 -4 9 3 5 -1 11 -9 15 -20 7 -19 32 1 40 21 8 26 8 21 -1 -3 -5 -1
-17 4 -28 7 -19 8 -19 8 3 1 12 8 25 17 29 8 3 13 11 10 18 -2 7 4 21 15 31
10 9 19 28 19 42 0 17 4 23 15 18 8 -3 15 -1 15 3 0 5 -7 12 -16 15 -12 4 -14
14 -9 36 4 19 3 30 -4 30 -6 0 -11 10 -11 23 0 29 -19 57 -27 39 -2 -6 -8 -10
-12 -7 -5 2 -14 -7 -21 -20 -7 -14 -17 -25 -22 -25 -5 0 -7 -14 -3 -30 5 -25
3 -30 -12 -30 -17 -1 -17 -1 0 -11 13 -8 22 -8 29 -1 7 7 17 8 28 2 23 -12 35
-41 14 -33 -7 3 -14 1 -14 -5 0 -6 6 -12 13 -15 6 -2 9 -8 5 -12 -4 -4 -14 -3
-21 3 -22 18 -29 1 -10 -21 10 -11 13 -17 7 -14 -7 4 -14 0 -18 -8 -3 -8 -12
-15 -20 -15 -9 0 -20 -9 -26 -20 -6 -11 -15 -18 -21 -15 -6 4 -5 13 1 25 8 15
6 17 -10 13 -23 -6 -26 7 -7 26 9 10 9 15 0 18 -7 2 -9 11 -6 20 5 13 2 13
-14 5 -15 -9 -23 -7 -36 9 -9 10 -26 19 -37 19 -17 0 -20 7 -20 39 0 22 -5 42
-12 44 -10 4 -10 8 1 15 12 9 12 14 -2 36 -9 14 -17 32 -17 41 0 30 -16 14
-29 -29 -17 -59 0 -130 30 -121 22 7 24 2 7 -26 -11 -17 -10 -22 4 -30 12 -7
16 -18 12 -37 -4 -19 0 -32 10 -41 9 -8 16 -21 16 -31 0 -22 26 -44 41 -35 6
4 15 1 20 -6 14 -22 10 -33 -6 -19 -23 19 -31 3 -10 -20 9 -10 15 -26 12 -34
-4 -9 -2 -18 2 -21 5 -2 12 -45 16 -94 6 -83 9 -90 31 -95 17 -5 22 -11 16
-24 -6 -16 -7 -16 -10 1 -5 23 -22 22 -22 -2 0 -12 11 -23 30 -30 17 -5 30
-14 30 -20 0 -5 3 -17 7 -27 4 -12 3 -15 -5 -10 -8 5 -10 2 -6 -8 3 -8 15 -18
25 -21 14 -5 18 -12 14 -26 -6 -18 -5 -19 15 -7 18 11 23 11 33 -3 10 -13 49
-30 79 -33 3 -1 10 -5 15 -10 5 -5 -1 -7 -14 -3 -37 9 -26 -7 22 -33 24 -13
47 -30 50 -38 3 -7 10 -10 16 -6 7 4 9 3 5 -4 -8 -13 14 -28 23 -15 4 6 21 3
44 -7 20 -9 34 -19 31 -23 -8 -7 56 -73 68 -69 5 1 5 -6 -1 -16 -8 -16 -6 -18
12 -17 13 1 27 -7 35 -19 9 -15 12 -16 8 -3 -3 9 -1 17 4 17 6 0 10 -7 10 -15
0 -8 9 -19 20 -25 17 -9 19 -8 13 7 -3 10 -12 26 -20 35 -13 14 -13 16 2 14 9
-1 20 -7 23 -12 4 -6 17 -10 29 -10 17 0 19 3 11 13 -8 10 -6 13 5 13 8 0 18
-6 20 -12 3 -8 6 -5 6 5 1 10 5 16 10 13 5 -4 12 0 14 6 4 10 6 9 6 -1 1 -11
4 -11 16 -1 11 9 15 9 15 1 0 -7 5 -9 10 -6 6 3 10 1 10 -5 0 -6 4 -9 10 -5 5
3 34 7 65 8 46 3 55 1 50 -12 -4 -11 0 -10 15 4 11 10 20 13 20 7 0 -7 21 -10
63 -8 34 1 67 -1 73 -5 16 -13 159 -15 157 -3 -1 6 10 9 28 6 16 -2 29 -8 29
-13 0 -5 3 -8 8 -8 24 4 52 -2 47 -11 -3 -5 -3 -10 2 -10 4 0 21 -11 37 -25
16 -14 33 -25 39 -25 5 0 7 -7 4 -15 -4 -8 -2 -17 4 -21 6 -4 4 -15 -7 -31
-15 -24 -15 -26 0 -35 13 -7 14 -13 6 -23 -6 -7 -8 -26 -5 -42 5 -21 4 -24 -4
-13 -6 9 -11 10 -11 3 0 -6 7 -19 16 -27 8 -9 11 -16 5 -16 -6 0 -7 -7 -4 -17
4 -11 3 -14 -5 -9 -7 4 -12 1 -12 -9 0 -11 5 -15 14 -12 11 5 13 0 6 -21 -17
-58 -16 -68 10 -82 16 -9 18 -8 14 5 -5 11 -2 13 10 9 9 -3 16 -1 16 6 0 6 4
8 10 5 5 -3 12 6 16 21 5 19 9 22 15 12 6 -8 9 0 9 24 0 44 9 70 21 62 8 -4
13 16 12 52 0 6 7 11 15 10 9 -1 18 11 23 28 4 15 23 41 41 58 27 24 30 31 18
39 -13 8 -13 11 3 20 9 6 15 14 12 19 -3 4 2 10 10 14 8 3 12 12 9 21 -3 8 -1
15 5 15 6 0 10 3 9 7 -1 5 6 24 14 43 9 19 17 29 17 23 1 -7 6 -13 11 -13 6 0
8 10 4 24 -3 13 -1 27 4 30 6 4 8 -2 5 -14 -4 -16 -2 -19 11 -14 9 3 16 11 16
16 0 6 6 8 14 5 7 -3 23 1 35 9 11 8 21 12 21 9 0 -4 13 3 29 14 l28 20 28
-29 c24 -25 26 -32 15 -45 -18 -22 2 -44 24 -26 8 7 23 11 33 8 15 -4 14 -5
-3 -6 -24 -1 -38 -33 -21 -50 8 -8 7 -11 -2 -11 -10 0 -12 -12 -9 -45 3 -24 3
-43 -1 -41 -3 2 -7 -8 -8 -22 -3 -53 -9 -87 -16 -99 -4 -7 -11 -36 -14 -64 -5
-43 -4 -51 8 -45 8 4 4 -1 -8 -10 -13 -9 -23 -21 -23 -27 0 -6 -8 -19 -17 -29
-16 -18 -16 -18 1 -12 16 6 17 4 7 -14 -8 -14 -17 -19 -29 -15 -14 6 -15 4 -4
-9 9 -11 10 -18 2 -23 -5 -3 -10 -15 -10 -26 0 -10 -5 -19 -11 -19 -6 0 -8 -9
-3 -22 4 -13 7 -28 7 -35 0 -7 4 -10 9 -7 19 12 6 -15 -14 -29 -23 -15 -23
-16 -1 -10 16 4 21 0 20 -14 -1 -10 -6 -21 -12 -25 -6 -4 -2 -8 8 -8 9 0 17
-4 17 -10 0 -19 21 -10 30 12 6 17 9 18 9 6 1 -9 -3 -20 -9 -23 -18 -11 -10
-25 15 -25 14 0 25 5 25 11 0 8 5 8 15 -1 12 -10 15 -9 15 4 0 10 14 23 33 31
35 15 76 52 43 39 -12 -5 -15 -2 -10 10 3 9 14 16 23 16 9 0 17 8 18 19 1 14
-3 18 -14 14 -13 -5 -15 -2 -10 12 4 9 2 24 -4 31 -12 15 -10 16 46 29 57 14
97 16 90 5 -3 -5 0 -7 8 -4 20 7 40 -22 33 -50 -4 -18 -1 -25 15 -29 12 -3 18
-10 15 -16 -3 -5 0 -16 8 -24 8 -8 12 -18 8 -22 -9 -10 5 -5 67 25 28 14 54
33 57 43 3 10 12 16 19 13 7 -2 21 6 29 20 9 13 12 24 6 24 -5 0 -10 -4 -10
-10 0 -5 -4 -10 -10 -10 -5 0 -10 7 -10 15 0 8 -9 20 -20 27 -27 17 -25 30 3
26 20 -3 22 1 22 42 0 35 -4 45 -17 45 -9 0 -20 4 -25 9 -4 5 -3 6 5 2 17 -10
24 13 14 49 -6 20 -14 29 -25 27 -10 -2 -17 4 -17 14 0 11 6 15 19 11 15 -3
21 1 23 16 4 28 28 34 35 8 4 -17 9 -19 25 -10 11 6 18 7 15 1 -4 -5 4 -14 17
-20 22 -10 23 -9 18 11 -5 20 -4 21 13 7 15 -12 17 -12 10 -1 -6 11 -3 13 16
8 13 -4 32 -7 42 -7 9 0 17 -8 18 -17 0 -17 1 -17 7 -1 5 13 11 15 22 8 13 -8
13 -11 1 -19 -11 -7 -9 -10 8 -16 11 -3 21 -12 21 -18 0 -20 26 16 44 61 l16
43 -55 24 c-31 14 -60 25 -66 25 -6 0 -23 6 -37 14 -15 7 -38 18 -52 23 -14 6
-51 22 -83 36 -31 15 -70 27 -86 27 -15 0 -67 18 -115 40 -48 22 -95 39 -104
38 -11 -2 -19 9 -27 36 -6 22 -16 41 -21 43 -9 3 -9 115 -1 296 4 67 9 95 24
115 10 15 30 47 43 72 13 25 40 77 61 115 21 39 51 95 67 125 15 30 45 86 66
123 32 58 42 89 62 210 25 148 39 177 85 177 19 0 25 11 12 24 -12 12 -14 56
-2 56 6 0 8 7 5 16 -3 8 -2 13 3 10 5 -3 12 10 15 28 4 19 12 36 19 39 8 2 7
15 -7 44 -24 54 -18 79 17 76 24 -2 27 1 22 18 -4 13 -2 19 9 19 22 0 20 20
-1 20 -17 1 -17 1 0 14 20 16 23 27 3 20 -22 -9 -25 8 -10 51 23 62 25 75 25
155 0 41 4 79 9 85 4 5 10 35 12 65 2 30 8 64 12 75 5 14 5 16 -2 7 -6 -10
-11 0 -15 33 -4 26 -4 51 -1 56 3 5 0 9 -5 9 -18 0 -12 26 9 45 11 10 20 26
20 35 0 19 30 50 49 50 27 0 89 40 95 62 3 13 6 51 6 85 0 46 6 74 24 108 23
42 25 58 26 173 0 85 5 140 15 167 16 45 19 91 7 99 -5 3 -8 70 -7 148 3 222
1 212 40 258 19 23 35 48 35 56 0 8 13 40 28 72 26 51 27 62 19 110 -5 29 -13
50 -18 46 -5 -3 -12 3 -16 12 -4 10 -2 19 5 22 7 2 12 12 12 22 0 10 11 38 25
61 14 24 25 54 25 66 0 12 6 23 13 26 20 7 -33 53 -70 62 -29 6 -33 11 -33 38
0 17 -5 45 -12 63 -10 28 -14 31 -34 24 -16 -6 -26 -5 -34 5 -10 12 -9 16 2
20 10 4 13 15 10 31 -2 13 2 32 9 41 12 15 12 16 -6 9 -11 -4 -16 -4 -12 0 4
4 2 14 -5 21 -9 11 -9 16 1 23 10 6 10 9 1 12 -6 2 -13 16 -13 31 -2 22 -7 27
-27 27 -18 0 -21 3 -11 9 9 6 11 16 6 32 -12 39 -25 49 -66 49 -37 0 -51 12
-29 25 6 4 8 16 4 28 -8 27 -40 68 -46 61 -3 -2 -8 13 -12 36 -3 22 -12 40
-19 40 -8 0 -7 4 3 10 10 7 11 12 4 18 -6 4 -11 27 -13 51 -1 25 -4 48 -7 53
-9 14 -88 63 -98 60 -16 -5 -53 46 -60 82 -4 19 -11 38 -16 41 -9 6 -53 -4
-91 -19 -17 -7 -17 -5 -36 127 -4 29 -10 37 -25 37 -16 0 -18 3 -10 13 9 10 6
17 -8 29 -10 9 -21 13 -25 10 -4 -4 -6 -2 -4 3 4 17 -12 45 -27 45 -19 0 -64
-22 -64 -31 0 -5 6 -6 13 -3 8 3 20 -2 27 -11 10 -12 16 -13 29 -3 14 11 14
11 3 -3 -15 -20 -52 -32 -52 -17 0 6 -9 8 -20 5 -19 -5 -24 3 -21 31 2 10 -4
12 -18 7 -13 -4 -21 -2 -21 5 0 6 -7 18 -15 26 -13 14 -16 14 -21 -1 -4 -9 -4
-32 -1 -51 5 -30 4 -34 -8 -24 -11 9 -15 9 -15 1 0 -6 -6 -11 -13 -11 -7 0
-32 -14 -55 -31 -23 -17 -42 -26 -42 -20 0 6 5 11 11 11 6 0 9 6 6 14 -3 8 5
18 19 25 13 6 25 16 25 23 1 7 3 27 5 43 5 41 -14 75 -43 75 -14 0 -23 -5 -21
-12 4 -24 -12 -66 -28 -72 -22 -9 -53 11 -58 37 -3 12 -7 45 -10 74 -4 43 -2
51 10 46 22 -8 17 15 -7 27 -15 9 -24 8 -35 -1 -8 -6 -14 -8 -14 -3 0 4 -13
-5 -30 -21 -16 -16 -30 -35 -30 -42 0 -15 -6 -11 -51 30 -10 9 -28 17 -40 17
-16 0 -20 4 -15 18 5 14 4 14 -9 -2 -8 -11 -15 -26 -15 -33 0 -7 -4 -13 -9
-13 -14 0 -33 28 -26 39 3 6 0 8 -8 5 -9 -3 -22 4 -31 17 -13 20 -19 21 -41
11 -14 -6 -25 -18 -25 -27 0 -8 -6 -15 -13 -15 -7 0 -25 -14 -40 -31 -25 -28
-31 -31 -52 -21 -28 13 -40 49 -31 94 6 28 4 30 -19 26 -17 -4 -25 -1 -25 8 0
20 -30 17 -68 -6 -53 -33 -73 -24 -142 58 -12 13 -34 14 -92 3z m19 -57 c-9
-9 -28 6 -21 18 4 6 10 6 17 -1 6 -6 8 -13 4 -17z m40 -34 c3 -11 10 -17 16
-13 6 3 7 1 3 -5 -4 -7 -1 -12 8 -12 9 0 16 -4 16 -10 0 -5 -4 -10 -9 -10 -6
0 -13 5 -16 10 -3 6 -14 10 -25 10 -13 0 -17 7 -16 25 1 30 16 33 23 5z m483
-30 c0 -5 -8 -10 -17 -10 -15 0 -16 2 -3 10 19 12 20 12 20 0z m-107 -65 c-3
-9 -8 -14 -10 -11 -3 3 -2 9 2 15 9 16 15 13 8 -4z m187 -11 c0 -8 -4 -12 -10
-9 -5 3 -10 10 -10 16 0 5 5 9 10 9 6 0 10 -7 10 -16z m84 -9 c-6 -16 -24 -21
-24 -7 0 11 11 22 21 22 5 0 6 -7 3 -15z m-301 -1 c-7 -3 -9 -13 -6 -22 5 -13
3 -14 -7 -5 -14 13 -5 33 13 32 9 0 9 -2 0 -5z m792 -178 c12 -12 12 -16 -2
-28 -15 -11 -16 -11 -10 5 3 9 2 17 -3 17 -6 0 -10 5 -10 10 0 14 9 12 25 -4z
m275 -146 c0 -5 -4 -10 -10 -10 -5 0 -10 5 -10 10 0 6 5 10 10 10 6 0 10 -4
10 -10z m-2630 -64 c0 -3 -4 -8 -10 -11 -5 -3 -10 -1 -10 4 0 6 5 11 10 11 6
0 10 -2 10 -4z m-275 -107 c10 -14 1 -21 -19 -13 -9 3 -13 10 -10 15 7 12 21
11 29 -2z m3165 -273 c0 -3 -4 -8 -10 -11 -5 -3 -10 -1 -10 4 0 6 5 11 10 11
6 0 10 -2 10 -4z m-1525 -275 c8 -14 -10 -22 -30 -15 -13 5 -14 8 -3 15 17 11
26 11 33 0z m1645 1 c0 -4 -10 -13 -22 -21 -23 -14 -23 -14 -4 8 20 22 26 25
26 13z m160 -302 c0 -5 -4 -10 -10 -10 -5 0 -10 5 -10 10 0 6 5 10 10 10 6 0
10 -4 10 -10z m-3094 -407 c-10 -10 -19 5 -10 18 6 11 8 11 12 0 2 -7 1 -15
-2 -18z m41 -28 c0 -18 -19 -26 -36 -15 -9 5 -10 10 -2 14 6 4 11 1 11 -6 0
-8 5 -6 11 5 12 21 16 21 16 2z m-123 -21 c-11 -9 -13 -13 -6 -9 6 3 12 2 12
-4 0 -14 -40 -25 -52 -13 -13 13 13 37 42 39 21 2 22 1 4 -13z m494 -371 c-10
-2 -26 -2 -35 0 -10 3 -2 5 17 5 19 0 27 -2 18 -5z m1847 -14 c17 -10 39 -23
50 -28 33 -16 -2 -12 -44 5 -22 8 -42 22 -45 30 -7 18 2 17 39 -7z m-58 5 c-3
-3 -12 -4 -19 -1 -8 3 -5 6 6 6 11 1 17 -2 13 -5z m-1902 -14 c-27 -12 -35
-12 -35 0 0 6 12 10 28 9 24 0 25 -1 7 -9z m-65 -10 c0 -5 -5 -10 -11 -10 -5
0 -7 5 -4 10 3 6 8 10 11 10 2 0 4 -4 4 -10z m360 1 c0 -8 -79 -3 -89 5 -2 2
17 4 42 4 26 0 47 -4 47 -9z m1397 -7 c-3 -3 -12 -4 -19 -1 -8 3 -5 6 6 6 11
1 17 -2 13 -5z m46 -1 c-7 -2 -19 -2 -25 0 -7 3 -2 5 12 5 14 0 19 -2 13 -5z
m-204 -27 c-130 -30 -220 -75 -295 -150 -79 -79 -99 -134 -91 -250 4 -60 13
-101 37 -156 46 -110 45 -107 23 -85 -26 25 -65 125 -91 230 -20 78 -20 83 -3
145 16 60 23 69 82 118 109 90 300 170 404 171 17 0 -13 -10 -66 -23z m-1396
-3 c-13 -2 -33 -2 -45 0 -13 2 -3 4 22 4 25 0 35 -2 23 -4z m1615 0 c-10 -2
-26 -2 -35 0 -10 3 -2 5 17 5 19 0 27 -2 18 -5z m-123 -10 c-16 -3 -32 -8 -35
-12 -7 -11 -99 -61 -112 -61 -7 0 -6 5 2 15 7 8 19 15 26 15 8 0 14 5 14 11 0
23 -95 -12 -110 -41 -10 -19 -8 -20 22 -18 26 2 33 -1 32 -14 -1 -9 4 -15 10
-12 6 2 25 6 41 8 17 2 66 14 110 26 120 34 167 42 179 30 12 -12 79 -13 92
-1 5 5 18 5 29 1 11 -5 14 -9 8 -9 -7 -1 -13 -5 -13 -9 0 -5 16 -7 35 -6 21 2
33 -1 30 -6 -4 -6 7 -10 24 -10 22 0 31 -5 31 -16 0 -10 6 -14 18 -10 9 3 28
-2 42 -10 14 -8 18 -14 10 -13 -8 1 -26 0 -40 -1 -20 -1 -16 -5 21 -18 28 -10
44 -22 42 -29 -3 -7 2 -13 11 -13 9 0 16 -6 16 -14 0 -8 5 -18 11 -22 9 -5 10
2 6 22 -6 26 -5 26 10 -6 33 -74 34 -199 2 -299 -50 -158 -215 -304 -390 -346
-184 -43 -360 3 -480 125 -45 47 -59 56 -73 48 -26 -15 -47 9 -24 26 17 12 15
18 -17 92 -80 186 -61 350 52 443 90 74 259 139 363 138 33 0 33 0 5 -4z m510
-104 c41 -38 61 -70 33 -53 -8 5 -9 2 -5 -9 9 -25 2 -21 -18 9 -9 15 -12 23
-6 20 27 -17 7 16 -26 43 -21 17 -34 31 -30 31 4 0 28 -19 52 -41z m-2359 -8
c-24 -25 -35 -44 -31 -52 6 -8 4 -10 -5 -4 -10 6 -12 4 -7 -8 7 -19 -8 -33
-18 -17 -9 14 19 58 59 92 45 40 46 34 2 -11z m2433 -46 c29 -48 44 -130 38
-206 -6 -67 -36 -194 -44 -185 -2 2 3 30 13 62 33 115 4 329 -52 375 -8 6 -14
16 -14 22 0 13 35 -27 59 -68z m-2493 18 c-33 -50 -45 -109 -46 -215 0 -58 6
-107 20 -149 22 -73 20 -90 -3 -27 -37 99 -49 228 -28 304 10 37 64 124 76
124 3 0 -6 -17 -19 -37z m-71 -79 c-4 -41 -10 -74 -13 -74 -4 1 -17 22 -30 48
-19 39 -21 53 -13 75 11 28 53 53 60 35 2 -5 0 -43 -4 -84z m2810 -174 c8 -30
14 -75 14 -100 l-2 -45 -6 40 c-4 22 -20 72 -36 110 -15 39 -30 91 -33 118 -2
26 -8 49 -11 52 -4 2 -5 21 -3 41 4 35 7 30 34 -62 16 -54 35 -124 43 -154z
m-1491 194 c14 -36 7 -44 -39 -44 -40 0 -45 2 -45 23 0 31 7 37 46 37 20 0 34
-6 38 -16z m-1429 -34 c3 -6 -4 -10 -17 -10 -18 0 -20 2 -8 10 19 12 18 12 25
0z m2825 0 c0 -5 -7 -10 -15 -10 -8 0 -15 5 -15 10 0 6 7 10 15 10 8 0 15 -4
15 -10z m-200 -410 c-6 -11 -13 -20 -16 -20 -2 0 0 9 6 20 6 11 13 20 16 20 2
0 0 -9 -6 -20z m-1498 -47 c-6 -10 -28 -34 -49 -53 -32 -29 -34 -30 -12 -5 15
17 34 43 44 58 19 30 33 30 17 0z m1458 -6 c0 -2 -15 -16 -32 -33 l-33 -29 29
33 c28 30 36 37 36 29z m-810 -59 c38 -44 40 -48 13 -29 -33 25 -79 81 -66 81
4 0 28 -23 53 -52z m-1032 -145 c-10 -2 -28 -2 -40 0 -13 2 -5 4 17 4 22 1 32
-1 23 -4z m1805 -858 c-3 -9 -8 -14 -10 -11 -3 3 -2 9 2 15 9 16 15 13 8 -4z
m-49 -70 c3 -8 1 -15 -4 -15 -6 0 -10 7 -10 15 0 8 2 15 4 15 2 0 6 -7 10 -15z
m-31 -128 c-9 -16 -26 12 -18 30 7 17 8 17 15 -2 4 -11 5 -24 3 -28z m-103
-69 c24 -39 26 -55 5 -38 -8 7 -15 20 -15 29 0 9 -5 22 -12 29 -7 7 -9 12 -5
12 4 0 16 -15 27 -32z m-1950 12 c0 -5 -4 -10 -10 -10 -5 0 -6 -7 -3 -17 4
-11 3 -14 -5 -9 -17 10 -15 46 3 46 8 0 15 -4 15 -10z m2030 -70 c0 -5 -4 -10
-10 -10 -5 0 -10 5 -10 10 0 6 5 10 10 10 6 0 10 -4 10 -10z m-219 -98 c14
-16 14 -20 1 -32 -13 -11 -14 -11 -10 1 3 8 1 22 -4 32 -11 22 -7 22 13 -1z
m11 -74 c-7 -7 -12 -8 -12 -2 0 6 3 14 7 17 3 4 9 5 12 2 2 -3 -1 -11 -7 -17z
m-1622 -283 c0 -12 -29 -3 -34 10 -4 13 -2 14 14 5 11 -6 20 -13 20 -15z m951
-109 c-6 -14 -18 -26 -27 -26 -8 0 -14 6 -11 13 2 6 9 11 15 10 6 -2 14 7 17
18 4 11 9 19 11 16 3 -2 0 -16 -5 -31z m639 -239 c0 -5 -4 -5 -10 -2 -5 3 -10
14 -10 23 0 15 2 15 10 2 5 -8 10 -19 10 -23z m17 -19 c-3 -8 -6 -5 -6 6 -1
11 2 17 5 13 3 -3 4 -12 1 -19z m-142 -18 c3 -6 -1 -7 -9 -4 -18 7 -21 14 -7
14 6 0 13 -4 16 -10z m-1310 -40 c3 -5 1 -10 -4 -10 -6 0 -11 5 -11 10 0 6 2
10 4 10 3 0 8 -4 11 -10z m912 -116 c-3 -3 -12 -4 -19 -1 -8 3 -5 6 6 6 11 1
17 -2 13 -5z m570 -140 c-3 -3 -12 -4 -19 -1 -8 3 -5 6 6 6 11 1 17 -2 13 -5z
m393 -38 c0 -3 -4 -8 -10 -11 -5 -3 -10 -1 -10 4 0 6 5 11 10 11 6 0 10 -2 10
-4z m11 -99 c-10 -9 -11 -8 -5 6 3 10 9 15 12 12 3 -3 0 -11 -7 -18z m29 -107
c0 -5 -5 -10 -11 -10 -5 0 -7 5 -4 10 3 6 8 10 11 10 2 0 4 -4 4 -10z m-331
-53 c0 -9 -2 -8 -6 1 -2 6 -10 9 -15 6 -7 -4 -8 -2 -4 5 9 13 26 5 25 -12z
m-176 -52 c-3 -9 -8 -14 -10 -11 -3 3 -2 9 2 15 9 16 15 13 8 -4z"/>
<path d="M4350 5390 c-24 -8 -23 -8 8 -9 17 -1 32 4 32 9 0 11 -5 11 -40 0z"/>
<path d="M4408 5393 c7 -3 16 -2 19 1 4 3 -2 6 -13 5 -11 0 -14 -3 -6 -6z"/>
<path d="M4448 5393 c7 -3 16 -2 19 1 4 3 -2 6 -13 5 -11 0 -14 -3 -6 -6z"/>
<path d="M4480 5375 c0 -22 -4 -25 -33 -25 -18 0 -39 6 -46 13 -10 10 -16 8
-31 -10 -10 -13 -23 -23 -28 -23 -6 0 -13 -6 -15 -12 -4 -10 -6 -10 -6 0 -2
22 -18 13 -31 -18 -7 -16 -17 -30 -23 -30 -6 0 -8 -2 -5 -5 5 -5 61 13 118 38
14 6 27 12 30 13 3 1 5 -23 5 -54 0 -32 4 -64 8 -72 6 -13 0 -15 -35 -13 -33
2 -38 1 -23 -6 11 -5 30 -10 42 -10 12 -1 27 -9 32 -18 6 -10 11 -12 11 -5 0
18 17 15 40 -8 17 -17 21 -18 35 -4 12 13 19 13 30 4 8 -6 18 -9 23 -6 5 3 17
-3 27 -14 17 -19 19 -19 31 -3 11 17 13 17 34 -2 18 -16 20 -16 14 -2 -3 9
-10 17 -15 17 -5 0 -9 5 -9 10 0 16 57 -17 65 -37 6 -16 8 -16 19 6 l13 24 22
-22 c22 -22 61 -22 61 1 0 6 22 8 61 4 72 -6 109 11 109 51 0 14 -4 22 -10 18
-6 -4 -8 -14 -5 -23 3 -11 -3 -22 -18 -31 -17 -11 -19 -11 -9 0 15 16 16 59 1
59 -6 0 -9 7 -5 15 3 9 0 15 -9 15 -18 0 -19 14 -4 42 10 18 9 20 -5 15 -14
-6 -15 -3 -6 13 7 13 7 26 1 38 -12 22 -76 73 -83 66 -3 -2 -17 0 -31 5 -21 8
-28 7 -36 -7 -9 -16 -13 -16 -78 1 -73 19 -128 23 -104 8 16 -11 7 -16 -41
-25 -39 -7 -83 8 -73 25 4 5 1 9 -4 9 -6 0 -11 -11 -11 -25z m403 -64 c-5 -7
-53 41 -53 52 0 5 12 -3 28 -19 15 -16 26 -31 25 -33z m-181 -20 c33 -13 68
-49 68 -69 0 -23 -31 -41 -85 -49 l-45 -6 16 38 c9 21 14 51 12 67 -5 30 -1
33 34 19z m-162 -31 c0 -5 -7 -10 -15 -10 -8 0 -15 5 -15 10 0 6 7 10 15 10 8
0 15 -4 15 -10z m-10 -100 c0 -5 -4 -10 -10 -10 -5 0 -10 5 -10 10 0 6 5 10
10 10 6 0 10 -4 10 -10z m110 -20 c0 -5 -2 -10 -4 -10 -3 0 -8 5 -11 10 -3 6
-1 10 4 10 6 0 11 -4 11 -10z"/>
<path d="M5016 5363 c9 -38 14 -42 14 -10 0 14 -5 29 -10 32 -7 4 -8 -3 -4
-22z"/>
<path d="M4221 7994 c0 -11 3 -14 6 -6 3 7 2 16 -1 19 -3 4 -6 -2 -5 -13z"/>
<path d="M2255 7430 c-3 -5 -1 -10 4 -10 6 0 11 5 11 10 0 6 -2 10 -4 10 -3 0
-8 -4 -11 -10z"/>
<path d="M4028 6643 c6 -2 10 -9 7 -14 -4 -5 1 -6 9 -3 20 8 11 24 -12 23 -11
0 -12 -2 -4 -6z"/>
<path d="M4766 6072 c-3 -5 1 -9 9 -9 8 0 12 4 9 9 -3 4 -7 8 -9 8 -2 0 -6 -4
-9 -8z"/>
<path d="M2515 6029 c-4 -6 -5 -12 -2 -15 2 -3 7 2 10 11 7 17 1 20 -8 4z"/>
<path d="M2415 5979 c-9 -14 -2 -20 14 -10 8 6 9 11 3 15 -6 3 -14 1 -17 -5z"/>
<path d="M2664 5764 c-18 -14 -18 -15 4 -4 12 6 22 13 22 15 0 8 -5 6 -26 -11z"/>
<path d="M4555 5760 c3 -5 14 -10 23 -10 15 0 15 2 2 10 -20 13 -33 13 -25 0z"/>
<path d="M2490 5730 c0 -5 5 -10 10 -10 6 0 10 5 10 10 0 6 -4 10 -10 10 -5 0
-10 -4 -10 -10z"/>
<path d="M3222 5620 c20 -11 40 -24 43 -30 3 -5 17 -10 31 -10 38 0 14 34 -34
48 -62 19 -83 14 -40 -8z"/>
<path d="M3110 5416 c0 -11 30 -39 36 -34 2 3 -5 13 -16 23 -11 10 -20 15 -20
11z"/>
<path d="M3150 5410 c0 -5 5 -10 10 -10 6 0 10 5 10 10 0 6 -4 10 -10 10 -5 0
-10 -4 -10 -10z"/>
<path d="M3018 5403 c7 -3 16 -2 19 1 4 3 -2 6 -13 5 -11 0 -14 -3 -6 -6z"/>
<path d="M3084 5402 c15 -24 -74 -43 -119 -26 -13 5 -14 8 -3 15 23 15 -45 10
-74 -5 -14 -8 -45 -17 -67 -21 -34 -6 -41 -4 -41 9 0 18 -15 21 -25 6 -3 -5
-19 -10 -36 -10 -19 0 -29 -5 -29 -15 0 -8 -7 -15 -15 -15 -16 0 -48 -54 -38
-64 17 -17 -9 -126 -30 -126 -5 0 -5 6 -1 13 5 8 2 8 -9 -2 -19 -15 -23 -41
-6 -41 5 0 7 6 3 13 -5 9 -3 9 7 -1 12 -11 12 -14 -1 -22 -8 -5 -11 -12 -7
-16 3 -4 13 -1 22 6 12 10 15 10 15 -4 0 -13 9 -15 45 -12 25 3 49 7 54 10 5
3 14 -1 21 -9 16 -19 60 -20 60 -1 0 23 23 24 42 2 10 -12 17 -16 18 -8 0 15
36 52 52 52 6 0 3 -9 -7 -20 -10 -11 -13 -20 -8 -20 6 0 16 7 24 16 12 14 14
14 26 -2 13 -17 14 -17 29 4 8 12 20 19 26 16 6 -4 17 1 24 11 12 16 14 16 29
1 20 -20 25 -20 39 0 6 8 18 16 26 18 8 2 32 11 53 20 21 9 42 14 47 11 6 -4
10 -1 10 6 0 8 -12 10 -41 5 -36 -6 -41 -4 -35 10 15 40 17 66 8 94 -10 26 -9
30 8 30 10 0 21 -4 24 -9 3 -5 18 -11 33 -13 16 -3 36 -9 47 -13 16 -7 17 -5
11 16 -11 36 -24 47 -35 29 -8 -13 -10 -12 -10 3 0 10 -5 15 -11 12 -5 -4 -19
3 -29 15 -14 17 -23 20 -32 12 -7 -5 -29 -12 -48 -14 -28 -2 -34 0 -32 14 1 9
-3 20 -9 24 -8 4 -9 3 -5 -4z m-343 -69 c-8 -15 -10 -15 -11 -2 0 17 10 32 18
25 2 -3 -1 -13 -7 -23z m-40 -36 c-10 -9 -11 -8 -5 6 3 10 9 15 12 12 3 -3 0
-11 -7 -18z m212 -20 c-3 -13 2 -41 11 -62 23 -54 21 -58 -21 -50 -44 8 -93
32 -93 44 0 16 52 72 74 81 31 13 34 12 29 -13z m157 -7 c0 -5 -7 -10 -16 -10
-8 0 -12 5 -9 10 3 6 10 10 16 10 5 0 9 -4 9 -10z m10 -100 c0 -5 -4 -10 -10
-10 -5 0 -10 5 -10 10 0 6 5 10 10 10 6 0 10 -4 10 -10z m-110 -24 c0 -3 -4
-8 -10 -11 -5 -3 -10 -1 -10 4 0 6 5 11 10 11 6 0 10 -2 10 -4z"/>
<path d="M3180 5406 c0 -9 50 -12 62 -5 8 6 -1 9 -24 9 -21 0 -38 -2 -38 -4z"/>
<path d="M2547 5340 c-3 -11 -1 -23 4 -26 5 -3 9 6 9 20 0 31 -6 34 -13 6z"/>
<path d="M2379 5305 c-1 -3 -2 -8 -3 -12 -1 -5 -5 -14 -9 -20 -5 -8 -3 -13 3
-13 7 0 14 9 17 21 4 16 8 17 14 7 7 -10 9 -9 9 5 0 15 -28 26 -31 12z"/>
<path d="M5090 5066 c0 -9 5 -16 10 -16 6 0 10 4 10 9 0 6 -4 13 -10 16 -5 3
-10 -1 -10 -9z"/>
<path d="M5411 4928 c-34 -34 -59 -63 -57 -65 2 -3 33 25 68 61 35 36 60 66
56 66 -4 0 -34 -28 -67 -62z"/>
<path d="M3580 4913 c-23 -5 -49 -28 -50 -46 0 -4 10 -2 23 4 12 7 23 12 25
11 9 -7 20 1 25 18 3 11 4 19 4 19 -1 -1 -13 -4 -27 -6z"/>
<path d="M3971 4839 c0 -28 5 -65 13 -83 20 -47 72 -103 104 -111 15 -3 44
-23 65 -43 20 -20 37 -33 37 -30 0 18 -83 144 -99 149 -12 5 -20 21 -25 47 -6
41 -50 102 -74 102 -7 0 -10 5 -7 10 3 6 2 10 -3 10 -5 0 -10 -23 -11 -51z"/>
<path d="M3515 4738 c-16 -6 -32 -15 -35 -19 -3 -4 -18 -12 -33 -18 -15 -6
-26 -15 -25 -20 2 -5 -1 -11 -7 -12 -10 -4 -47 -70 -42 -76 2 -1 12 5 23 15
10 9 39 26 64 37 57 25 77 43 85 78 4 15 6 27 4 26 -2 0 -17 -5 -34 -11z"/>
<path d="M2199 4543 c-5 -14 -8 -34 -6 -42 4 -13 5 -12 6 2 2 37 24 10 27 -34
5 -49 24 -124 45 -177 11 -25 11 -35 2 -40 -10 -6 -10 -16 -1 -45 6 -20 15
-37 19 -37 5 0 6 -6 3 -14 -3 -8 0 -17 6 -21 7 -5 9 -25 4 -62 -6 -53 -6 -55
17 -52 13 2 34 -2 46 -9 12 -7 29 -12 39 -12 14 0 15 -2 3 -17 -10 -11 -10
-14 -1 -9 8 5 12 1 12 -11 0 -10 5 -25 11 -33 7 -11 9 -6 7 20 -3 33 -1 35 26
35 35 0 45 19 18 36 -11 7 -18 18 -15 25 3 9 -4 12 -24 11 -23 -2 -28 2 -31
23 -2 22 -1 23 8 8 6 -10 19 -18 28 -18 10 0 13 3 7 8 -6 4 -16 20 -23 35 -8
19 -18 27 -27 23 -11 -4 -15 2 -17 22 -1 15 -2 35 -3 44 0 9 -7 25 -15 35 -27
33 -40 62 -34 78 5 11 2 14 -10 9 -18 -7 -20 3 -6 26 5 9 5 19 -1 27 -6 7 -8
16 -5 21 3 5 -5 24 -18 43 -13 19 -26 46 -30 62 -6 25 -38 67 -51 67 -3 0 -10
-12 -16 -27z m101 -328 c0 -8 -2 -15 -4 -15 -2 0 -6 7 -10 15 -3 8 -1 15 4 15
6 0 10 -7 10 -15z"/>
<path d="M3935 4501 c-40 -18 -95 -72 -95 -93 0 -6 10 -4 23 4 12 8 49 18 82
22 33 5 68 15 77 23 13 11 21 12 37 3 19 -10 21 -8 21 15 0 45 -74 59 -145 26z"/>
<path d="M3483 4490 c-38 -23 -43 -42 -10 -38 12 1 48 -3 80 -11 32 -7 70 -10
83 -7 14 4 24 2 24 -4 0 -14 27 -13 36 2 10 16 -38 55 -84 67 -55 16 -93 13
-129 -9z"/>
<path d="M3648 4403 c-10 -2 -18 -11 -18 -19 0 -21 18 -17 30 6 6 11 9 19 8
19 -2 -1 -11 -3 -20 -6z"/>
<path d="M4054 4336 c22 -18 66 -22 66 -6 0 6 -11 10 -24 10 -13 0 -33 3 -43
6 -16 5 -16 4 1 -10z"/>
<path d="M3862 4311 c2 -7 7 -12 11 -12 12 1 9 15 -3 20 -7 2 -11 -2 -8 -8z"/>
<path d="M3970 4296 c0 -8 5 -18 10 -21 6 -3 10 3 10 14 0 12 -4 21 -10 21 -5
0 -10 -6 -10 -14z"/>
<path d="M3931 4274 c0 -11 3 -14 6 -6 3 7 2 16 -1 19 -3 4 -6 -2 -5 -13z"/>
<path d="M3686 4264 c-14 -14 -14 -17 -1 -30 20 -21 19 -31 -5 -39 -30 -9 -56
-53 -41 -68 6 -6 11 -20 11 -31 1 -19 3 -18 26 9 l26 30 -6 -27 c-3 -15 -2
-29 3 -32 5 -3 12 13 15 37 4 26 3 43 -3 45 -6 2 0 18 13 35 25 34 25 60 0 50
-17 -6 -19 8 -2 25 9 9 8 12 -4 12 -9 0 -24 -7 -32 -16z m-1 -104 c3 -5 1 -10
-4 -10 -6 0 -11 5 -11 10 0 6 2 10 4 10 3 0 8 -4 11 -10z"/>
<path d="M4005 4270 c-3 -5 -3 -10 2 -10 4 0 1 -5 -7 -10 -8 -5 -10 -10 -4
-10 19 0 26 -60 10 -76 -20 -20 -23 -18 -23 16 0 40 -31 66 -51 41 -10 -12
-15 -13 -18 -3 -9 21 -31 13 -29 -10 4 -33 4 -34 15 -18 7 11 12 12 20 4 8 -8
6 -13 -9 -17 -19 -5 -55 20 -63 44 -2 7 -11 10 -18 7 -15 -5 14 -38 73 -83 14
-11 26 -27 26 -35 0 -13 -2 -12 -12 1 -10 14 -16 15 -30 4 -9 -7 -17 -15 -17
-17 0 -8 53 -4 68 5 6 5 17 5 22 2 6 -3 13 1 16 9 3 9 14 16 24 16 20 0 32
-23 24 -45 -8 -20 6 -41 16 -25 6 9 15 8 38 -4 29 -15 32 -15 46 5 15 21 54
20 41 -1 -3 -5 -1 -10 4 -10 6 0 11 -5 11 -11 0 -6 -7 -9 -15 -5 -10 4 -15 -1
-15 -15 0 -17 -5 -20 -25 -17 -34 7 -21 -9 22 -27 50 -21 73 -19 73 5 0 11 4
20 9 20 22 0 22 58 0 94 -12 20 -18 40 -15 43 4 4 9 -3 13 -15 3 -12 9 -19 14
-16 5 3 18 -10 29 -28 17 -28 20 -30 20 -11 0 32 -10 53 -26 53 -8 0 -19 11
-24 25 -5 14 -16 25 -24 25 -8 0 -18 5 -22 12 -5 8 0 9 16 5 13 -3 19 -2 14 2
-14 13 -64 22 -64 12 0 -5 7 -16 15 -25 16 -16 21 -41 6 -31 -5 3 -12 1 -16
-5 -3 -5 -12 -10 -20 -10 -13 0 -24 32 -30 86 -1 14 -5 27 -8 30 -8 9 -28 -6
-22 -16 3 -4 -2 -13 -10 -20 -12 -10 -15 -9 -15 4 0 9 -5 16 -11 16 -7 0 -9
10 -5 25 5 20 3 25 -13 25 -11 0 -23 -4 -26 -10z m-65 -110 c0 -5 -4 -10 -9
-10 -6 0 -13 5 -16 10 -3 6 1 10 9 10 9 0 16 -4 16 -10z m180 -80 c0 -5 -5
-10 -11 -10 -5 0 -7 5 -4 10 3 6 8 10 11 10 2 0 4 -4 4 -10z"/>
<path d="M3524 4253 c-10 -35 -47 -103 -55 -103 -15 0 -10 19 11 40 24 24 26
40 5 40 -9 0 -20 -11 -25 -25 -12 -31 -34 -34 -25 -4 7 20 4 19 -29 -7 -20
-16 -34 -35 -32 -44 11 -43 16 -70 12 -70 -3 0 -10 18 -16 41 -6 23 -14 39
-17 36 -3 -4 -1 -19 5 -35 5 -16 7 -45 3 -63 -7 -33 -8 -33 -16 -9 -4 13 -14
30 -21 38 -12 11 -14 10 -14 -12 0 -14 5 -28 10 -31 6 -3 10 -13 10 -21 0 -8
-4 -12 -10 -9 -13 8 -13 3 2 -32 6 -15 10 -35 9 -43 -1 -12 0 -12 7 -1 6 8 17
11 31 6 12 -3 21 -3 20 2 -6 37 45 79 54 44 4 -13 6 -11 12 7 4 12 14 22 22
22 8 0 11 5 7 11 -3 6 -3 14 2 18 5 3 15 18 21 34 15 32 31 35 41 7 7 -18 10
-19 27 -6 18 13 18 15 2 30 -9 10 -17 24 -17 32 0 8 -5 12 -10 9 -6 -4 -7 -11
-4 -17 4 -7 2 -8 -4 -4 -6 4 -17 -2 -24 -14 -7 -11 -16 -20 -20 -20 -15 0 -8
21 17 45 13 14 19 25 13 25 -7 0 -7 4 1 14 6 8 11 18 9 22 -1 5 3 19 10 30 11
21 7 34 -10 34 -5 0 -11 -8 -14 -17z m-117 -115 c-3 -8 -6 -5 -6 6 -1 11 2 17
5 13 3 -3 4 -12 1 -19z m21 -102 c-2 -10 -7 -13 -17 -7 -8 6 -11 16 -7 27 8
21 30 4 24 -20z m-42 -2 c-4 -9 -9 -15 -11 -12 -3 3 -3 13 1 22 4 9 9 15 11
12 3 -3 3 -13 -1 -22z m-12 -56 c6 -5 2 -8 -10 -8 -13 0 -24 8 -27 19 -7 27 5
36 17 14 5 -10 14 -21 20 -25z"/>
<path d="M3856 4261 c-4 -7 -5 -15 -2 -18 9 -9 19 4 14 18 -4 11 -6 11 -12 0z"/>
<path d="M3577 4231 c-3 -11 0 -21 5 -21 6 0 5 -6 -2 -15 -20 -24 13 -19 35 5
16 18 16 20 2 20 -9 0 -20 7 -25 16 -8 14 -10 13 -15 -5z"/>
<path d="M3665 4220 c-3 -5 -1 -10 4 -10 6 0 11 5 11 10 0 6 -2 10 -4 10 -3 0
-8 -4 -11 -10z"/>
<path d="M3725 4170 c-3 -5 -2 -10 4 -10 5 0 13 5 16 10 3 6 2 10 -4 10 -5 0
-13 -4 -16 -10z"/>
<path d="M3840 4160 c0 -5 9 -10 20 -10 11 0 20 -5 20 -12 0 -6 3 -8 7 -4 5 4
-1 14 -11 22 -23 16 -36 18 -36 4z"/>
<path d="M3840 4094 c0 -10 -3 -15 -6 -11 -3 3 -15 -4 -26 -15 -16 -16 -22
-18 -29 -7 -7 11 -9 10 -9 -4 0 -23 29 -34 41 -16 5 8 9 11 9 7 0 -4 9 0 20 9
22 19 26 38 10 48 -5 3 -10 -2 -10 -11z"/>
<path d="M3740 4078 c0 -19 2 -20 10 -8 13 19 13 30 0 30 -5 0 -10 -10 -10
-22z"/>
<path d="M3258 4053 c-9 -10 -24 -24 -32 -31 -9 -7 -16 -17 -16 -23 0 -6 18 6
40 27 22 21 40 39 40 41 0 9 -18 1 -32 -14z"/>
<path d="M3196 4043 c-6 -14 -5 -15 5 -6 7 7 10 15 7 18 -3 3 -9 -2 -12 -12z"/>
<path d="M3500 4030 c0 -5 5 -10 11 -10 5 0 7 5 4 10 -3 6 -8 10 -11 10 -2 0
-4 -4 -4 -10z"/>
<path d="M4370 4021 c0 -5 5 -13 10 -16 6 -3 10 -2 10 4 0 5 -4 13 -10 16 -5
3 -10 2 -10 -4z"/>
<path d="M4290 4011 c0 -5 5 -13 10 -16 16 -10 12 -38 -4 -32 -24 10 -38 -17
-25 -47 7 -14 16 -23 22 -19 6 3 7 1 3 -5 -11 -19 -51 -14 -71 8 -25 28 -32
26 -76 -21 -26 -27 -39 -36 -39 -25 0 25 -17 19 -24 -8 -5 -20 -15 -26 -63
-34 -41 -7 -62 -7 -71 1 -10 8 -16 7 -22 -4 -7 -10 -3 -16 15 -21 34 -9 106
-19 133 -19 13 1 20 -4 17 -9 -3 -6 1 -13 9 -16 16 -6 23 -25 9 -23 -5 1 -15
1 -23 0 -12 -1 -12 -4 3 -12 9 -5 17 -17 17 -24 0 -29 26 -14 39 21 14 38 27
36 33 -6 2 -17 8 -24 20 -22 21 3 14 -26 -11 -45 -11 -8 -12 -12 -4 -13 14 0
43 22 77 56 12 12 30 23 41 26 12 2 19 10 17 21 -2 12 4 17 23 17 16 0 25 6
25 15 0 8 3 15 8 15 4 0 7 11 7 25 0 18 -4 23 -16 20 -9 -3 -19 1 -22 10 -4 9
-13 12 -23 8 -12 -4 -15 -2 -12 8 2 8 14 15 26 17 19 3 21 6 10 25 -15 27 -18
64 -7 95 5 13 5 23 -1 23 -20 3 -25 4 -37 12 -7 5 -13 4 -13 -2z m-150 -251
c0 -5 -7 -10 -15 -10 -8 0 -15 5 -15 10 0 6 7 10 15 10 8 0 15 -4 15 -10z"/>
<path d="M3270 3989 c0 -5 5 -7 10 -4 6 3 10 8 10 11 0 2 -4 4 -10 4 -5 0 -10
-5 -10 -11z"/>
<path d="M4893 3993 c-10 -3 -10 -10 -2 -26 11 -20 12 -20 25 -2 20 26 8 41
-23 28z"/>
<path d="M2520 3971 c0 -5 5 -13 10 -16 6 -3 10 -2 10 4 0 5 -4 13 -10 16 -5
3 -10 2 -10 -4z"/>
<path d="M3215 3959 c6 -19 4 -21 -19 -17 -30 6 -49 -12 -40 -36 8 -20 20 -21
28 -1 3 8 12 15 19 15 8 0 19 11 25 24 9 20 8 25 -4 30 -12 5 -14 1 -9 -15z"/>
<path d="M2480 3961 c0 -5 7 -11 15 -15 8 -3 15 -1 15 3 0 5 -7 11 -15 15 -8
3 -15 1 -15 -3z"/>
<path d="M3125 3960 c-3 -5 -1 -10 4 -10 6 0 11 5 11 10 0 6 -2 10 -4 10 -3 0
-8 -4 -11 -10z"/>
<path d="M3250 3945 c-7 -8 -9 -15 -4 -15 5 -1 -2 -7 -15 -14 -24 -14 -24 -14
-3 -20 12 -4 30 -3 39 3 10 6 15 11 10 11 -4 0 0 11 9 25 16 24 15 25 -4 25
-11 0 -25 -7 -32 -15z"/>
<path d="M4410 3951 c-8 -3 -15 -18 -15 -33 -1 -21 4 -27 20 -25 21 2 24 -12
10 -46 -6 -13 -3 -16 9 -11 11 4 15 2 11 -7 -3 -8 6 -26 19 -40 18 -20 22 -29
13 -38 -11 -11 2 -16 27 -12 4 1 14 -3 21 -9 10 -8 15 -1 23 32 6 23 7 48 3
56 -5 8 -6 24 -3 35 3 14 1 18 -6 13 -17 -10 -15 10 2 27 9 9 11 19 5 28 -7
11 -9 10 -9 -4 0 -10 -4 -16 -9 -12 -5 3 -12 1 -16 -5 -8 -13 -55 -13 -55 0 0
6 -8 10 -18 10 -26 0 -34 11 -20 27 13 16 8 23 -12 14z m75 -99 c-3 -8 0 -19
7 -23 10 -6 10 -11 1 -20 -6 -6 -16 -8 -22 -5 -12 8 -15 59 -5 69 11 11 26 -4
19 -21z"/>
<path d="M4495 3939 c-4 -6 -5 -12 -2 -15 2 -3 7 2 10 11 7 17 1 20 -8 4z"/>
<path d="M2447 3916 c-19 -15 -22 -37 -7 -52 5 -5 11 -37 12 -72 2 -34 6 -62
9 -62 3 0 16 11 29 24 20 23 21 26 7 40 -9 9 -20 16 -26 16 -15 0 -14 17 2 23
6 2 24 0 40 -4 22 -6 27 -5 27 11 0 22 -16 35 -25 20 -10 -16 -35 8 -28 26 7
20 -14 17 -26 -3 -10 -17 -10 -17 -11 -1 0 9 7 21 16 26 9 5 13 12 8 15 -5 3
-17 0 -27 -7z"/>
<path d="M2986 3885 c-14 -21 -16 -44 -7 -84 1 -2 7 1 14 7 7 6 23 9 35 5 26
-6 28 2 7 24 -19 18 -14 39 8 35 9 -1 21 7 27 18 10 19 10 20 -9 8 -16 -10
-23 -10 -33 0 -17 17 -24 15 -42 -13z"/>
<path d="M3674 3870 c-5 -5 -26 -11 -46 -13 -21 -2 -41 -7 -45 -11 -5 -4 -2
-6 6 -4 8 2 17 -5 19 -16 3 -12 0 -16 -8 -11 -16 10 -130 14 -124 4 7 -11 -33
-21 -56 -14 -11 3 -20 12 -20 20 0 26 -86 29 -115 5 -8 -7 -15 -9 -15 -4 0 4
-5 3 -12 -4 -7 -7 -19 -12 -28 -12 -20 0 -77 -53 -62 -58 7 -2 9 -9 5 -14 -4
-7 2 -9 16 -5 16 4 31 -3 53 -24 17 -16 31 -29 32 -29 1 -1 18 -3 38 -6 l38
-6 -11 31 c-6 17 -16 31 -22 31 -20 0 2 12 37 20 40 9 44 5 19 -22 -15 -17
-15 -18 0 -18 10 0 17 4 17 9 0 5 14 14 32 20 26 9 34 9 41 -4 7 -13 11 -13
32 2 14 10 25 23 25 30 0 12 74 28 89 19 5 -4 13 -1 16 4 4 7 19 8 38 4 18 -4
75 -6 127 -5 120 3 120 3 120 11 0 11 -145 22 -184 15 -32 -6 -33 -5 -34 25
-1 37 -5 43 -18 30z"/>
<path d="M2612 3762 c3 -9 10 -16 18 -14 7 2 16 -2 20 -9 5 -7 10 -8 14 -1 3
6 -8 17 -25 26 -28 14 -30 14 -27 -2z"/>
<path d="M2980 3770 c0 -8 5 -22 10 -30 9 -13 10 -13 10 0 0 8 -5 22 -10 30
-9 13 -10 13 -10 0z"/>
<path d="M2476 3721 c-4 -7 -5 -15 -2 -18 9 -9 19 4 14 18 -4 11 -6 11 -12 0z"/>
<path d="M4550 3704 c0 -8 5 -12 10 -9 6 4 8 11 5 16 -9 14 -15 11 -15 -7z"/>
<path d="M3991 3614 c0 -11 3 -14 6 -6 3 7 2 16 -1 19 -3 4 -6 -2 -5 -13z"/>
<path d="M2857 3584 c-8 -8 1 -24 14 -24 5 0 9 7 9 15 0 15 -12 20 -23 9z"/>
<path d="M2832 3460 c0 -14 2 -19 5 -12 2 6 2 18 0 25 -3 6 -5 1 -5 -13z"/>
<path d="M3677 3474 c-1 -2 -26 -4 -55 -5 -29 -2 -55 -6 -58 -11 -3 -5 -14 -6
-25 -3 -14 5 -17 3 -13 -9 5 -12 2 -15 -10 -10 -9 4 -16 1 -16 -6 0 -8 8 -10
24 -6 21 5 23 3 18 -21 -4 -21 -2 -25 12 -20 21 8 22 -16 1 -33 -20 -16 -19
-30 1 -30 10 0 14 6 11 14 -4 9 2 14 16 14 12 0 37 2 55 5 17 4 32 2 32 -3 0
-6 -5 -10 -12 -10 -6 0 -9 -3 -6 -6 4 -3 18 2 33 12 27 18 28 18 21 -3 -5 -16
-1 -22 15 -26 16 -4 20 -11 16 -27 -8 -32 25 -21 42 14 l14 29 13 -29 c7 -16
13 -23 13 -15 1 8 16 27 34 43 17 16 32 35 32 41 0 6 9 13 19 15 14 3 17 0 12
-13 -5 -15 -4 -16 9 -5 8 7 22 9 31 6 14 -5 15 -4 5 8 -7 8 -10 24 -6 36 5 15
12 19 31 14 19 -5 23 -3 18 10 -6 17 -19 18 -69 7 -20 -4 -33 -2 -40 6 -7 9
-44 14 -113 16 -56 2 -104 2 -105 1z m-87 -60 c0 -8 -5 -12 -10 -9 -6 4 -8 11
-5 16 9 14 15 11 15 -7z m40 -34 c0 -5 -9 -14 -21 -20 -19 -11 -20 -10 -9 9
11 22 30 29 30 11z m126 -68 c-10 -10 -29 15 -21 28 6 9 10 8 17 -4 6 -10 7
-20 4 -24z"/>
<path d="M2780 3411 c0 -13 29 -35 37 -28 7 8 -15 37 -28 37 -5 0 -9 -4 -9 -9z"/>
<path d="M4450 3390 c0 -5 5 -10 10 -10 6 0 10 5 10 10 0 6 -4 10 -10 10 -5 0
-10 -4 -10 -10z"/>
<path d="M2945 3260 c3 -5 8 -10 11 -10 2 0 4 5 4 10 0 6 -5 10 -11 10 -5 0
-7 -4 -4 -10z"/>
<path d="M3786 2993 c-6 -14 -5 -15 5 -6 7 7 10 15 7 18 -3 3 -9 -2 -12 -12z"/>
<path d="M2615 2550 c4 -6 11 -8 16 -5 14 9 11 15 -7 15 -8 0 -12 -5 -9 -10z"/>
<path d="M2250 2539 c0 -5 5 -7 10 -4 6 3 10 8 10 11 0 2 -4 4 -10 4 -5 0 -10
-5 -10 -11z"/>
<path d="M2273 2524 c-52 -25 -53 -26 -52 -67 0 -23 9 -60 20 -82 11 -22 17
-30 15 -17 -2 12 0 22 6 22 5 0 6 5 3 10 -3 6 -3 16 1 22 5 7 9 21 10 32 0 11
6 22 12 24 7 2 12 12 12 23 0 11 14 28 33 39 47 29 5 25 -60 -6z"/>
<path d="M2570 2539 c0 -5 5 -7 10 -4 6 3 10 8 10 11 0 2 -4 4 -10 4 -5 0 -10
-5 -10 -11z"/>
<path d="M2480 2530 c0 -5 5 -10 10 -10 6 0 10 5 10 10 0 6 -4 10 -10 10 -5 0
-10 -4 -10 -10z"/>
<path d="M2535 2521 c-3 -6 -2 -11 4 -11 6 0 8 -8 4 -17 -5 -16 -4 -15 9 1 10
13 17 15 22 8 8 -14 26 -16 26 -3 0 5 -8 11 -17 15 -10 3 -23 8 -30 12 -6 3
-14 0 -18 -5z"/>
<path d="M2643 2500 c-11 -16 -10 -18 2 -14 8 4 15 12 15 20 0 19 -3 18 -17
-6z"/>
<path d="M2680 2505 c0 -8 5 -15 10 -15 6 0 10 7 10 15 0 8 -4 15 -10 15 -5 0
-10 -7 -10 -15z"/>
<path d="M2645 2474 c-11 -8 -18 -18 -16 -22 7 -14 42 -34 48 -28 4 3 0 6 -8
7 -8 0 -4 4 9 9 19 8 21 13 12 30 -13 24 -18 24 -45 4z"/>
<path d="M5372 2481 c2 -7 7 -12 11 -12 12 1 9 15 -3 20 -7 2 -11 -2 -8 -8z"/>
<path d="M2450 2420 c0 -5 5 -10 10 -10 6 0 10 5 10 10 0 6 -4 10 -10 10 -5 0
-10 -4 -10 -10z"/>
<path d="M2505 2420 c3 -5 8 -10 11 -10 2 0 4 5 4 10 0 6 -5 10 -11 10 -5 0
-7 -4 -4 -10z"/>
<path d="M2520 2386 c0 -9 5 -16 10 -16 6 0 10 4 10 9 0 6 -4 13 -10 16 -5 3
-10 -1 -10 -9z"/>
<path d="M2696 2377 c3 -10 9 -15 12 -12 3 3 0 11 -7 18 -10 9 -11 8 -5 -6z"/>
<path d="M2437 2359 c7 -7 23 -14 35 -16 29 -5 12 12 -22 22 -20 6 -23 5 -13
-6z"/>
<path d="M5084 2305 c-4 -9 -4 -19 0 -22 3 -4 6 -1 6 6 0 7 5 9 10 6 6 -3 10
-2 10 4 0 18 -20 23 -26 6z"/>
<path d="M5110 2240 c0 -19 48 -60 70 -60 26 0 27 31 2 53 -20 19 -72 23 -72
7z"/>
<path d="M2330 2224 c0 -5 19 -32 41 -59 74 -90 121 -126 134 -105 4 6 2 10
-3 10 -6 0 -13 12 -16 26 -6 21 -9 24 -21 14 -17 -14 -19 -7 -6 19 7 13 6 18
-5 18 -7 0 -14 -4 -14 -9 0 -4 -4 -8 -10 -8 -18 0 -5 45 15 53 16 7 17 10 5
17 -20 13 -54 12 -67 -1 -8 -8 -17 -4 -32 12 -11 13 -21 18 -21 13z"/>
<path d="M4105 2160 c-3 -5 -1 -10 4 -10 6 0 11 5 11 10 0 6 -2 10 -4 10 -3 0
-8 -4 -11 -10z"/>
<path d="M4480 1921 c0 -5 7 -11 15 -15 8 -3 15 -1 15 3 0 5 -7 11 -15 15 -8
3 -15 1 -15 -3z"/>
<path d="M4660 1910 c0 -5 5 -10 11 -10 5 0 7 5 4 10 -3 6 -8 10 -11 10 -2 0
-4 -4 -4 -10z"/>
<path d="M4580 1870 c0 -6 7 -10 15 -10 8 0 15 2 15 4 0 2 -7 6 -15 10 -8 3
-15 1 -15 -4z"/>
<path d="M4510 1840 c-13 -8 -12 -10 3 -10 9 0 17 5 17 10 0 12 -1 12 -20 0z"/>
</g>
</svg>
